<mxfile host="Electron" modified="2023-10-16T07:45:02.804Z" agent="Mozilla/5.0 (Windows NT 10.0; Win64; x64) AppleWebKit/537.36 (KHTML, like Gecko) draw.io/21.6.5 Chrome/114.0.5735.243 Electron/25.3.1 Safari/537.36" etag="UGHyehDjZMn4tuCFKSYy" version="21.6.5" type="device">
  <diagram id="jEoN3aK4DxyiWH86SDb8" name="第1頁">
    <mxGraphModel dx="978" dy="571" grid="1" gridSize="10" guides="1" tooltips="1" connect="1" arrows="1" fold="1" page="1" pageScale="1" pageWidth="827" pageHeight="1169" math="0" shadow="0">
      <root>
        <mxCell id="0" />
        <mxCell id="1" parent="0" />
        <mxCell id="zT-_l9FsMJJN6NS-BaIS-1" value="&lt;font color=&quot;#516a8f&quot;&gt;動作者&lt;/font&gt;" style="swimlane;html=1;startSize=20;fillColor=#dae8fc;strokeColor=#516A8F;" parent="1" vertex="1">
          <mxGeometry x="180" y="50" width="250" height="240" as="geometry" />
        </mxCell>
        <mxCell id="zT-_l9FsMJJN6NS-BaIS-11" value="&lt;font color=&quot;#516a8f&quot;&gt;進入比價&lt;br&gt;結果頁面&lt;/font&gt;" style="rounded=1;whiteSpace=wrap;html=1;shadow=0;comic=0;labelBackgroundColor=none;strokeWidth=1;fontFamily=Verdana;fontSize=12;align=center;arcSize=15;fillColor=#dae8fc;strokeColor=#516A8F;glass=0;" parent="zT-_l9FsMJJN6NS-BaIS-1" vertex="1">
          <mxGeometry x="72.5" y="100" width="105" height="40" as="geometry" />
        </mxCell>
        <mxCell id="zT-_l9FsMJJN6NS-BaIS-6" style="edgeStyle=none;rounded=0;html=1;labelBackgroundColor=none;startArrow=none;startFill=0;startSize=5;endArrow=classic;endFill=1;endSize=5;jettySize=auto;orthogonalLoop=1;strokeWidth=1;fontFamily=Verdana;fontSize=12;exitX=0.5;exitY=1;exitDx=0;exitDy=0;strokeColor=#516A8F;arcSize=20;entryX=0.5;entryY=0;entryDx=0;entryDy=0;" parent="zT-_l9FsMJJN6NS-BaIS-1" source="zT-_l9FsMJJN6NS-BaIS-4" target="zT-_l9FsMJJN6NS-BaIS-11" edge="1">
          <mxGeometry relative="1" as="geometry">
            <mxPoint x="88.55000000000018" y="244.99999999999977" as="sourcePoint" />
            <mxPoint x="125" y="100" as="targetPoint" />
          </mxGeometry>
        </mxCell>
        <mxCell id="zT-_l9FsMJJN6NS-BaIS-4" value="" style="ellipse;whiteSpace=wrap;html=1;rounded=0;shadow=0;comic=0;labelBackgroundColor=none;strokeWidth=1;fillColor=#d5e8d4;fontFamily=Verdana;fontSize=12;align=center;strokeColor=#82b366;" parent="zT-_l9FsMJJN6NS-BaIS-1" vertex="1">
          <mxGeometry x="110" y="40" width="30" height="30" as="geometry" />
        </mxCell>
        <mxCell id="zT-_l9FsMJJN6NS-BaIS-9" value="&lt;font color=&quot;#516a8f&quot;&gt;系統&lt;/font&gt;" style="swimlane;html=1;startSize=20;fillColor=#dae8fc;strokeColor=#516A8F;" parent="1" vertex="1">
          <mxGeometry x="430" y="50" width="250" height="240" as="geometry" />
        </mxCell>
        <mxCell id="zT-_l9FsMJJN6NS-BaIS-5" value="&lt;font color=&quot;#516a8f&quot;&gt;顯示歷史最低&lt;br&gt;價格圖表&lt;br&gt;&lt;/font&gt;" style="rounded=1;whiteSpace=wrap;html=1;shadow=0;comic=0;labelBackgroundColor=none;strokeWidth=1;fontFamily=Verdana;fontSize=12;align=center;arcSize=15;fillColor=#dae8fc;strokeColor=#516A8F;glass=0;" parent="zT-_l9FsMJJN6NS-BaIS-9" vertex="1">
          <mxGeometry x="75" y="100" width="100" height="40" as="geometry" />
        </mxCell>
        <mxCell id="zT-_l9FsMJJN6NS-BaIS-10" style="edgeStyle=none;rounded=0;html=1;labelBackgroundColor=none;startArrow=none;startFill=0;startSize=5;endArrow=classic;endFill=1;endSize=5;jettySize=auto;orthogonalLoop=1;strokeWidth=1;fontFamily=Verdana;fontSize=12;exitX=0.5;exitY=1;exitDx=0;exitDy=0;strokeColor=#516A8F;arcSize=20;entryX=0.5;entryY=0;entryDx=0;entryDy=0;" parent="zT-_l9FsMJJN6NS-BaIS-9" source="zT-_l9FsMJJN6NS-BaIS-5" target="zT-_l9FsMJJN6NS-BaIS-15" edge="1">
          <mxGeometry relative="1" as="geometry">
            <mxPoint x="125" y="140.0000000000001" as="sourcePoint" />
            <mxPoint x="133" y="390" as="targetPoint" />
          </mxGeometry>
        </mxCell>
        <mxCell id="zT-_l9FsMJJN6NS-BaIS-13" value="" style="group" parent="zT-_l9FsMJJN6NS-BaIS-9" vertex="1" connectable="0">
          <mxGeometry x="109" y="180" width="32" height="32" as="geometry" />
        </mxCell>
        <mxCell id="zT-_l9FsMJJN6NS-BaIS-14" value="" style="ellipse;whiteSpace=wrap;html=1;aspect=fixed;fillColor=#b85450;strokeColor=#f8cecc;" parent="zT-_l9FsMJJN6NS-BaIS-13" vertex="1">
          <mxGeometry x="1" y="1" width="30" height="30" as="geometry" />
        </mxCell>
        <mxCell id="zT-_l9FsMJJN6NS-BaIS-15" value="" style="ellipse;whiteSpace=wrap;html=1;aspect=fixed;fillColor=none;strokeColor=#B85450;" parent="zT-_l9FsMJJN6NS-BaIS-13" vertex="1">
          <mxGeometry width="32" height="32" as="geometry" />
        </mxCell>
        <mxCell id="zT-_l9FsMJJN6NS-BaIS-16" style="edgeStyle=none;rounded=1;html=1;labelBackgroundColor=none;startArrow=none;startFill=0;startSize=5;endArrow=classic;endFill=1;endSize=5;jettySize=auto;orthogonalLoop=1;strokeWidth=1;fontFamily=Verdana;fontSize=12;strokeColor=#516A8F;arcSize=15;exitX=1;exitY=0.5;exitDx=0;exitDy=0;entryX=0;entryY=0.5;entryDx=0;entryDy=0;" parent="1" source="zT-_l9FsMJJN6NS-BaIS-11" target="zT-_l9FsMJJN6NS-BaIS-5" edge="1">
          <mxGeometry relative="1" as="geometry">
            <mxPoint x="360" y="305" as="sourcePoint" />
            <mxPoint x="470" y="210" as="targetPoint" />
          </mxGeometry>
        </mxCell>
      </root>
    </mxGraphModel>
  </diagram>
</mxfile>
